<?xml version="1.0" encoding="UTF-8" standalone="no"?>
<!-- Created with Inkscape (http://www.inkscape.org/) -->

<svg
   width="460.20911"
   height="415.5304"
   viewBox="0 0 121.76366 109.94241"
   version="1.1"
   id="svg1"
   xml:space="preserve"
   xmlns="http://www.w3.org/2000/svg"
   xmlns:svg="http://www.w3.org/2000/svg"><defs
     id="defs1" /><g
     id="layer1"
     transform="translate(-7.8162077,-12.188717)"><g
       id="g10"
       transform="translate(5.6857252,-1.0066234)"><path
         style="fill:#effbce"
         d="m 123.79509,68.171923 c 0,-18.408385 0.0316,-25.939088 0.0701,-16.734896 0.0386,9.204193 0.0386,24.265599 0,33.469792 -0.0386,9.204192 -0.0701,1.673489 -0.0701,-16.734896 z"
         id="path13" /><path
         style="fill:#c5f53e"
         d="m 106.73349,112.99245 c -1.05578,-0.28179 -9.534368,-4.74895 -10.546867,-5.55689 -0.0527,-0.042 1.045924,-1.40498 2.441391,-3.02872 9.151836,-10.648943 13.545896,-22.562957 13.510346,-36.631792 l -0.0134,-5.291667 -0.60227,-3.423861 C 109.61251,48.200399 104.9382,38.614778 97.736801,30.788748 c -0.909323,-0.988194 -1.608555,-1.840913 -1.55385,-1.89493 0.29786,-0.294115 7.482359,-4.313611 8.830709,-4.940498 7.37171,-3.427314 16.35441,1.029962 18.24573,9.053645 l 0.39958,1.695167 0.004,33.390622 c 0.003,23.369196 -0.0838,33.811426 -0.28848,34.792706 -1.53451,7.35845 -9.2902,12.06892 -16.64094,10.10699 z"
         id="path12" /><path
         style="fill:#11caf0"
         d="M 51.964736,122.89657 C 21.108137,119.99018 -1.4753938,91.665312 2.6080483,60.992096 7.8462418,21.644839 51.817527,0.63742924 85.803985,21.244994 c 4.159351,2.522008 10.24906,7.55068 9.636771,7.957715 -0.171887,0.114266 -11.054257,6.399006 -24.183044,13.966089 l -23.870521,13.758333 -1.684109,1.555555 -1.684108,1.555555 -1.09414,2.208066 -1.094139,2.208066 -0.12892,2.677269 c -0.22457,4.663649 1.015322,7.980406 4.012944,10.734772 l 1.619809,1.488362 13.096875,7.519456 c 14.462461,8.303496 34.305265,19.775598 34.924999,20.191868 l 0.396875,0.26657 -1.322916,1.19845 c -11.763011,10.65631 -27.02639,15.81967 -42.465625,14.36545 z"
         id="path11" /><path
         style="fill:#00a2e5"
         d="M 89.800152,103.82655 C 86.525934,101.91208 75.631715,95.622688 65.590778,89.850127 L 47.334528,79.35456 45.714719,77.866306 C 42.717131,75.112171 41.477202,71.795349 41.701775,67.131642 l 0.12892,-2.677269 1.094838,-2.209476 1.094838,-2.209475 1.657079,-1.528634 1.657078,-1.528635 24.209375,-13.983371 24.209374,-13.983371 1.724034,1.787027 c 9.391499,9.734649 14.388819,22.708512 14.395659,37.373485 l 0.003,6.217708 -0.48207,2.645834 C 109.38137,88.08062 104.49723,98.047434 97.428905,105.5329 l -1.675628,1.77451 z"
         id="path10" /></g></g></svg>
