<svg xmlns="http://www.w3.org/2000/svg" width="129.852" height="38.417" viewBox="0 0 129.852 38.417"><g transform="translate(-181 -38)"><path d="M78.491,5.316A2.571,2.571,0,0,0,79.749,1.89,2.6,2.6,0,0,0,76.3.64a2.582,2.582,0,1,0,2.191,4.676Z" transform="translate(135.742 37.603)"/><path d="M31.1,26.764a5.154,5.154,0,0,0-6.817-2.459,5.091,5.091,0,0,0-2.475,6.772A5.122,5.122,0,0,0,31.1,26.764Z" transform="translate(167.51 23.611)"/><path d="M53.2,13.574a3.766,3.766,0,0,0,1.826-4.958A3.813,3.813,0,0,0,50.031,6.8,3.738,3.738,0,1,0,53.2,13.574Z" transform="translate(151.744 33.979)"/><path d="M109.537,14.259a1.013,1.013,0,0,0-.487,1.371,1.025,1.025,0,0,0,1.38.484,1.013,1.013,0,0,0,.487-1.371A1.047,1.047,0,0,0,109.537,14.259Z" transform="translate(115.449 29.385)"/><path d="M5.7,55.007a6.347,6.347,0,0,0-3.084,8.465,6.425,6.425,0,0,0,8.522,3.064,6.347,6.347,0,0,0,3.084-8.465A6.425,6.425,0,0,0,5.7,55.007Z" transform="translate(178.996 5.366)"/><path d="M98.189,7.079A1.643,1.643,0,0,0,99,4.862a1.663,1.663,0,0,0-2.232-.806,1.643,1.643,0,0,0-.812,2.217A1.749,1.749,0,0,0,98.189,7.079Z" transform="translate(123.268 35.518)"/><path d="M115.831,24.177a.622.622,0,0,0-.852-.282.614.614,0,0,0-.284.847.622.622,0,0,0,.852.282A.649.649,0,0,0,115.831,24.177Z" transform="translate(112.076 23.619)"/><path d="M47.768,54.8a6.015,6.015,0,0,0-4.423,1.774A6.18,6.18,0,0,0,41.6,61.088a5.9,5.9,0,0,0,1.745,4.394,6.2,6.2,0,0,0,4.585,1.774,6.862,6.862,0,0,0,3.125-.645,6.2,6.2,0,0,0,2.272-1.975l-2.516-1.169a4.03,4.03,0,0,1-2.881,1.169,3.6,3.6,0,0,1-2.313-.726,3.029,3.029,0,0,1-1.1-2.015h9.617V61.33a6.111,6.111,0,0,0-6.371-6.53ZM44.6,59.557a3.655,3.655,0,0,1,1.1-1.532,3.778,3.778,0,0,1,4.22-.081A3.117,3.117,0,0,1,51.1,59.557Z" transform="translate(155.469 5.13)"/><path d="M89.487,46.147a12.313,12.313,0,0,0-5.235-.847H80.6v16h3.693a15.665,15.665,0,0,0,4.383-.4,5.744,5.744,0,0,0,2.354-1.411,6.851,6.851,0,0,0,1.7-2.58,9.3,9.3,0,0,0,.609-3.386,9.127,9.127,0,0,0-1.1-4.555A6.648,6.648,0,0,0,89.487,46.147Zm.243,10.077a3.734,3.734,0,0,1-1.542,1.612,7.2,7.2,0,0,1-3.043.484h-1.42V48.243H84.78a5.7,5.7,0,0,1,4.139,1.25,5.2,5.2,0,0,1,1.42,3.95A6.4,6.4,0,0,1,89.73,56.224Z" transform="translate(132.293 10.8)"/><path d="M123.027,63.017,119.943,55.6H116.9l4.5,10.924-2.435,5.24h3.084L129.52,55.6h-3.084Z" transform="translate(110.725 4.652)"/><path d="M160.233,54.8a5.1,5.1,0,0,0-1.7.322,6.873,6.873,0,0,0-1.826,1.169V55.082h-3V66.933h3V62.177a14.766,14.766,0,0,1,.122-2.419,3.255,3.255,0,0,1,.893-1.653,2.186,2.186,0,0,1,1.542-.6,1.942,1.942,0,0,1,1.177.363,1.868,1.868,0,0,1,.649,1.048,13.4,13.4,0,0,1,.2,2.822v5.2h2.962v-7.82a4.293,4.293,0,0,0-1.055-3.1A3.96,3.96,0,0,0,160.233,54.8Z" transform="translate(88.857 5.13)"/><path d="M196.374,56.412a5.652,5.652,0,0,0-1.745-1.209,4.93,4.93,0,0,0-2.029-.4,5.252,5.252,0,0,0-3.977,1.733A6.269,6.269,0,0,0,187,61.008a6.19,6.19,0,0,0,1.7,4.434,5.356,5.356,0,0,0,3.977,1.774,4.871,4.871,0,0,0,1.907-.363,5.7,5.7,0,0,0,1.745-1.209v1.25h3V55.122h-3v1.29Zm-.771,7.135a3.25,3.25,0,0,1-4.667-.04,3.867,3.867,0,0,1,0-5.039,3.043,3.043,0,0,1,2.313-.967,3.132,3.132,0,0,1,2.354.967,3.53,3.53,0,0,1,.933,2.5A3.594,3.594,0,0,1,195.6,63.547Z" transform="translate(69.07 5.13)"/><path d="M242.875,55.4a4.111,4.111,0,0,0-2.232-.6,4.831,4.831,0,0,0-2.272.524,4.966,4.966,0,0,0-1.745,1.572,3.931,3.931,0,0,0-1.461-1.572,3.807,3.807,0,0,0-2.029-.524,4.8,4.8,0,0,0-2.029.4,5.448,5.448,0,0,0-1.7,1.25V55.082h-3V66.933h3v-5.24a7.635,7.635,0,0,1,.284-2.5,2.837,2.837,0,0,1,.893-1.25,2.316,2.316,0,0,1,1.339-.443,1.822,1.822,0,0,1,1.136.363,1.923,1.923,0,0,1,.69,1.048,7.849,7.849,0,0,1,.243,2.3v5.724h3V61.612a7.361,7.361,0,0,1,.284-2.459,2.509,2.509,0,0,1,.893-1.209,2.345,2.345,0,0,1,1.38-.443,1.667,1.667,0,0,1,1.5.726,5.277,5.277,0,0,1,.487,2.741v6.006h3V60a8.012,8.012,0,0,0-.406-3.064A2.46,2.46,0,0,0,242.875,55.4Z" transform="translate(45.658 5.13)"/><path d="M280.107,43.5a1.846,1.846,0,0,0-1.339.564,1.822,1.822,0,0,0-.568,1.33,1.913,1.913,0,0,0,.568,1.371,1.872,1.872,0,0,0,1.38.564,1.934,1.934,0,0,0,1.907-1.935,1.913,1.913,0,0,0-.568-1.371A1.97,1.97,0,0,0,280.107,43.5Z" transform="translate(14.877 11.875)"/><rect width="3.003" height="11.851" transform="translate(293.484 60.252)"/><path d="M299.054,61.163l4.058-5.563H299.7l-2.354,3.225L295,55.6h-3.449l4.058,5.6-4.5,6.208h3.409l2.841-3.87,2.8,3.87h3.49Z" transform="translate(7.213 4.652)"/></g></svg>